<?xml version="1.0" encoding="UTF-8" standalone="no"?>
<!-- Created with Inkscape (http://www.inkscape.org/) -->

<svg
   width="47.931641"
   height="48.058598"
   viewBox="0 0 47.931641 48.058598"
   version="1.1"
   id="svg5"
   inkscape:export-filename="arrowActiveV5.svg"
   inkscape:export-xdpi="96"
   inkscape:export-ydpi="96"
   xmlns:inkscape="http://www.inkscape.org/namespaces/inkscape"
   xmlns:sodipodi="http://sodipodi.sourceforge.net/DTD/sodipodi-0.dtd"
   xmlns="http://www.w3.org/2000/svg"
   xmlns:svg="http://www.w3.org/2000/svg">
  <sodipodi:namedview
     id="namedview7"
     pagecolor="#505050"
     bordercolor="#eeeeee"
     borderopacity="1"
     inkscape:showpageshadow="0"
     inkscape:pageopacity="0"
     inkscape:pagecheckerboard="0"
     inkscape:deskcolor="#505050"
     inkscape:document-units="px"
     showgrid="false"
     showguides="true">
    <sodipodi:guide
       position="-19.378907,24.029301"
       orientation="0,-1"
       id="guide8176"
       inkscape:locked="false" />
  </sodipodi:namedview>
  <defs
     id="defs2" />
  <g
     inkscape:label="Capa 1"
     inkscape:groupmode="layer"
     id="layer1"
     transform="translate(-0.00390635,-0.03320328)">
    <g
       id="path1628"
       transform="matrix(1.2233189,0,0,1.2264979,-5.1999775,-4.3002629)">
      <path
         style="color:#000000;fill:#ffffff;fill-opacity:0;stroke-width:0.832798;-inkscape-stroke:none"
         d="M 43.020004,23.12468 A 19.175249,19.175249 0 0 1 23.844755,42.299929 19.175249,19.175249 0 0 1 4.6695061,23.12468 19.175249,19.175249 0 0 1 23.844755,3.9494305 19.175249,19.175249 0 0 1 43.020004,23.12468 Z"
         id="path5327" />
      <path
         style="color:#000000;fill:#296dfd;-inkscape-stroke:none"
         d="M 23.845703,3.5332031 C 13.030477,3.5332032 4.253906,12.309774 4.2539062,23.125 c 10e-8,10.815225 8.7765718,19.591797 19.5917968,19.591797 10.815226,0 19.589844,-8.776571 19.589844,-19.591797 0,-10.815226 -8.774618,-19.5917969 -19.589844,-19.5917969 z m 0,0.8320313 c 10.365149,0 18.757813,8.3946166 18.757813,18.7597656 0,10.365149 -8.392664,18.757812 -18.757813,18.757812 C 13.480555,41.882812 5.0859375,33.490148 5.0859375,23.125 5.0859372,12.759851 13.480554,4.3652344 23.845703,4.3652344 Z"
         id="path5329" />
    </g>
    <g
       id="rect2408"
       transform="matrix(1.1043024,0,0,1.1043024,-2.3895857,-0.85396714)">
      <path
         style="color:#000000;fill:#ffffff;fill-opacity:1;stroke-width:1.32859;stroke-linejoin:bevel;-inkscape-stroke:none"
         d="m 10.772684,20.990959 h 27.121992 c 1.207313,0 2.179264,0.971952 2.179264,2.179264 0,1.207313 -0.971951,2.179264 -2.179264,2.179264 H 10.772684 c -1.2073122,0 -2.179264,-0.971951 -2.179264,-2.179264 0,-1.207312 0.9719518,-2.179264 2.179264,-2.179264 z"
         id="path5333" />
      <path
         style="color:#000000;fill:#296dfd;fill-opacity:1;stroke-linejoin:bevel;-inkscape-stroke:none"
         d="m 10.773438,20.326172 c -1.5638402,0 -2.8437505,1.27991 -2.8437505,2.84375 0,1.56384 1.2799106,2.84375 2.8437505,2.84375 h 27.121093 c 1.56384,0 2.84375,-1.27991 2.84375,-2.84375 0,-1.563839 -1.279909,-2.84375 -2.84375,-2.84375 z m 0,1.328125 h 27.121093 c 0.850784,0 1.515625,0.664843 1.515625,1.515625 0,0.850784 -0.664841,1.515625 -1.515625,1.515625 H 10.773438 c -0.8507831,0 -1.5156255,-0.664842 -1.5156255,-1.515625 0,-0.850782 0.6648427,-1.515625 1.5156255,-1.515625 z"
         id="path5335" />
    </g>
    <g
       id="rect2408-8"
       inkscape:transform-center-x="-4.6931196"
       inkscape:transform-center-y="-7.2665192"
       transform="matrix(0.60207708,-0.92573596,0.47294013,0.99790356,-2.3895857,-0.85396714)">
      <path
         style="color:#000000;fill:#ffffff;fill-opacity:1;stroke-width:1.38556;stroke-linejoin:bevel;-inkscape-stroke:none"
         d="M -0.79959607,22.792833 H 11.667221 c 0.977392,0 1.764245,0.786854 1.764245,1.764246 0,0.977392 -0.786853,1.764245 -1.764245,1.764245 H -0.79959607 c -0.97739203,0 -1.76424553,-0.786853 -1.76424553,-1.764245 0,-0.977392 0.7868535,-1.764246 1.76424553,-1.764246 z"
         id="path5339" />
      <path
         style="color:#000000;fill:#296dfd;fill-opacity:1;stroke-linejoin:bevel;-inkscape-stroke:none"
         d="m -0.79882812,22.099609 c -1.34920788,0 -2.45703128,1.107824 -2.45703128,2.457032 0,1.349207 1.1078239,2.457031 2.45703128,2.457031 H 11.667969 c 1.349207,0 2.457031,-1.107824 2.457031,-2.457031 0,-1.349208 -1.107823,-2.457032 -2.457031,-2.457032 z m 0,1.386719 H 11.667969 c 0.605574,0 1.070312,0.464738 1.070312,1.070313 0,0.605574 -0.464738,1.072265 -1.070312,1.072265 H -0.79882812 c -0.60557468,0 -1.07226568,-0.466691 -1.07226558,-1.072265 0,-0.605575 0.4666913,-1.070313 1.07226558,-1.070313 z"
         id="path5341" />
    </g>
    <g
       id="rect2408-8-4"
       inkscape:transform-center-x="-4.8095955"
       inkscape:transform-center-y="-7.3320475"
       transform="matrix(0.60865661,-0.92142336,0.47896172,0.9950274,-2.3895857,-0.85396714)">
      <path
         style="color:#000000;fill:#ffffff;fill-opacity:1;stroke-width:1.40336;stroke-linejoin:bevel;-inkscape-stroke:none"
         d="m 23.350794,50.812122 h 5.247521 c 0.989056,0 1.7853,0.796245 1.7853,1.785301 0,0.989057 -0.796244,1.785301 -1.7853,1.785301 h -5.247521 c -0.989057,0 -1.785301,-0.796244 -1.785301,-1.785301 0,-0.989056 0.796244,-1.785301 1.785301,-1.785301 z"
         id="path5345" />
      <path
         style="color:#000000;fill:#296dfd;fill-opacity:1;stroke-linejoin:bevel;-inkscape-stroke:none"
         d="m 23.351562,50.111328 c -1.365649,0 -2.488281,1.12068 -2.488281,2.486328 0,1.365649 1.122632,2.486328 2.488281,2.486328 h 5.246094 c 1.365649,0 2.488281,-1.120679 2.488281,-2.486328 0,-1.365648 -1.122632,-2.486328 -2.488281,-2.486328 z m 0,1.402344 h 5.246094 c 0.612461,0 1.083985,0.471523 1.083985,1.083984 0,0.612463 -0.471523,1.083985 -1.083985,1.083985 h -5.246094 c -0.612462,0 -1.083984,-0.471522 -1.083984,-1.083985 0,-0.612461 0.471522,-1.083984 1.083984,-1.083984 z"
         id="path5347" />
    </g>
    <path
       id="rect2408-9"
       style="fill:#ffffff;fill-opacity:1;stroke-width:1.24126;stroke-linejoin:bevel"
       d="m 9.600219,22.922049 h 29.927742 c 0.990203,0 1.787368,0.797166 1.787368,1.787367 0,0.990202 -0.797165,1.787368 -1.787368,1.787368 H 9.600219 c -0.990202,0 -1.787368,-0.797166 -1.787368,-1.787368 0,-0.990201 0.797166,-1.787367 1.787368,-1.787367 z" />
  </g>
</svg>
